<svg width="24" height="24" viewBox="0 0 24 24" fill="none" xmlns="http://www.w3.org/2000/svg">
<rect opacity="0.01" width="24" height="24" fill="#212529"/>
<mask id="path-2-inside-1_5333_1678" fill="white">
<path d="M19.0702 4.92993C15.6854 1.52307 10.3568 1.00339 6.37754 3.69206C2.39831 6.38073 0.892251 11.5184 2.79016 15.9299C2.88605 16.1287 2.91751 16.3524 2.88016 16.5699L2.00016 20.7999C1.93129 21.1294 2.03276 21.4714 2.27016 21.7099C2.46375 21.9021 2.72746 22.0069 3.00016 21.9999H3.20016L7.48016 21.1399C7.69769 21.1138 7.91828 21.1448 8.12016 21.2299C12.5316 23.1278 17.6694 21.6218 20.358 17.6425C23.0467 13.6633 22.527 8.33469 19.1202 4.94993L19.0702 4.92993Z"/>
</mask>
<path d="M19.0702 4.92993L18.2189 5.77569L18.3939 5.95187L18.6245 6.04411L19.0702 4.92993ZM2.79016 15.9299L1.68784 16.4042L1.69809 16.428L1.70936 16.4513L2.79016 15.9299ZM2.88016 16.5699L4.055 16.8143L4.05929 16.7938L4.06284 16.773L2.88016 16.5699ZM2.00016 20.7999L3.17477 21.0455L3.175 21.0443L2.00016 20.7999ZM2.27016 21.7099L1.41954 22.5564L1.42472 22.5615L2.27016 21.7099ZM3.00016 21.9999V20.7999H2.98487L2.96959 20.8003L3.00016 21.9999ZM3.20016 21.9999V23.1999H3.31953L3.43656 23.1764L3.20016 21.9999ZM7.48016 21.1399L7.33691 19.9485L7.29004 19.9541L7.24376 19.9634L7.48016 21.1399ZM8.12016 21.2299L8.59441 20.1276L8.58644 20.1242L8.12016 21.2299ZM19.1202 4.94993L19.9659 4.09865L19.7926 3.92648L19.5658 3.83576L19.1202 4.94993ZM19.9214 4.08417C16.1305 0.268487 10.1625 -0.313558 5.70572 2.69776L7.04937 4.68637C10.5511 2.32034 15.2403 2.77766 18.2189 5.77569L19.9214 4.08417ZM5.70572 2.69776C1.24897 5.70907 -0.437813 11.4633 1.68784 16.4042L3.89247 15.4557C2.22231 11.5736 3.54765 7.0524 7.04937 4.68637L5.70572 2.69776ZM1.70936 16.4513C1.6967 16.4251 1.69254 16.3955 1.69747 16.3668L4.06284 16.773C4.14248 16.3093 4.0754 15.8323 3.87096 15.4085L1.70936 16.4513ZM1.70531 16.3255L0.825313 20.5555L3.175 21.0443L4.055 16.8143L1.70531 16.3255ZM0.825551 20.5544C0.674035 21.2791 0.897267 22.0315 1.41955 22.5564L3.12077 20.8635C3.16825 20.9112 3.18854 20.9796 3.17477 21.0455L0.825551 20.5544ZM1.42472 22.5615C1.85063 22.9844 2.43078 23.2148 3.03072 23.1995L2.96959 20.8003C3.02414 20.7989 3.07688 20.8199 3.11559 20.8583L1.42472 22.5615ZM3.00016 23.1999H3.20016V20.7999H3.00016V23.1999ZM3.43656 23.1764L7.71656 22.3164L7.24376 19.9634L2.96376 20.8234L3.43656 23.1764ZM7.6234 22.3314C7.63376 22.3301 7.64427 22.3316 7.65388 22.3356L8.58644 20.1242C8.19229 19.958 7.76162 19.8974 7.33691 19.9485L7.6234 22.3314ZM7.64592 22.3322C12.5868 24.4579 18.341 22.7711 21.3523 18.3144L19.3637 16.9707C16.9977 20.4724 12.4765 21.7978 8.5944 20.1276L7.64592 22.3322ZM21.3523 18.3144C24.3636 13.8576 23.7816 7.88958 19.9659 4.09865L18.2744 5.80122C21.2724 8.7798 21.7298 13.469 19.3637 16.9707L21.3523 18.3144ZM19.5658 3.83576L19.5158 3.81576L18.6245 6.04411L18.6745 6.06411L19.5658 3.83576Z" fill="#212529" mask="url(#path-2-inside-1_5333_1678)"/>
<path d="M8 13C7.44772 13 7 12.5523 7 12C7 11.4477 7.44772 11 8 11C8.55228 11 9 11.4477 9 12C9 12.5523 8.55228 13 8 13Z" fill="#212529"/>
<path d="M12 13C11.4477 13 11 12.5523 11 12C11 11.4477 11.4477 11 12 11C12.5523 11 13 11.4477 13 12C13 12.5523 12.5523 13 12 13Z" fill="#212529"/>
<path d="M16 13C15.4477 13 15 12.5523 15 12C15 11.4477 15.4477 11 16 11C16.5523 11 17 11.4477 17 12C17 12.5523 16.5523 13 16 13Z" fill="#212529"/>
</svg>
