<svg width="24" height="24" viewBox="0 0 24 24" fill="none" xmlns="http://www.w3.org/2000/svg">
<path fill-rule="evenodd" clip-rule="evenodd" d="M12 22C17.5228 22 22 17.5228 22 12C22 6.47715 17.5228 2 12 2C6.47715 2 2 6.47715 2 12C2 17.5228 6.47715 22 12 22ZM16.6187 10.0999C16.9604 9.75818 16.9604 9.20416 16.6187 8.86245C16.277 8.52074 15.723 8.52074 15.3813 8.86245L10.783 13.4608L8.61927 11.2971C8.27756 10.9554 7.72354 10.9554 7.38183 11.2971C7.04012 11.6388 7.04012 12.1928 7.38183 12.5345L10.1643 15.3169C10.506 15.6586 11.06 15.6586 11.4017 15.3169L16.6187 10.0999Z" fill="#212529"/>
</svg>
