<svg width="24" height="24" viewBox="0 0 24 24" fill="none" xmlns="http://www.w3.org/2000/svg">
<path fill-rule="evenodd" clip-rule="evenodd" d="M12 22C17.5228 22 22 17.5228 22 12C22 6.47715 17.5228 2 12 2C6.47715 2 2 6.47715 2 12C2 17.5228 6.47715 22 12 22ZM15.6187 8.38128C15.9604 8.72299 15.9604 9.27701 15.6187 9.61872L13.2374 12L15.6187 14.3813C15.9604 14.723 15.9604 15.277 15.6187 15.6187C15.277 15.9604 14.723 15.9604 14.3813 15.6187L12 13.2374L9.61872 15.6187C9.27701 15.9604 8.72299 15.9604 8.38128 15.6187C8.03957 15.277 8.03957 14.723 8.38128 14.3813L10.7626 12L8.38128 9.61872C8.03957 9.27701 8.03957 8.72299 8.38128 8.38128C8.72299 8.03957 9.27701 8.03957 9.61872 8.38128L12 10.7626L14.3813 8.38128C14.723 8.03957 15.277 8.03957 15.6187 8.38128Z" fill="#212529"/>
</svg>
