<svg width="16" height="16" viewBox="0 0 16 16" fill="none" xmlns="http://www.w3.org/2000/svg">
<path d="M8.00001 4.23889C8.35899 4.23889 8.65001 4.52991 8.65001 4.88889V8.38889C8.65001 8.74788 8.35899 9.03889 8.00001 9.03889C7.64102 9.03889 7.35001 8.74788 7.35001 8.38889V4.88889C7.35001 4.52991 7.64102 4.23889 8.00001 4.23889Z" fill="#212529"/>
<path d="M8.75 10.9831C8.75 10.5689 8.41421 10.2331 8 10.2331C7.58579 10.2331 7.25 10.5689 7.25 10.9831V11.0139C7.25 11.4281 7.58579 11.7639 8 11.7639C8.41421 11.7639 8.75 11.4281 8.75 11.0139V10.9831Z" fill="#212529"/>
<path fill-rule="evenodd" clip-rule="evenodd" d="M8 15C11.866 15 15 11.866 15 8C15 4.13401 11.866 1 8 1C4.13401 1 1 4.13401 1 8C1 11.866 4.13401 15 8 15ZM8 13.75C11.1756 13.75 13.75 11.1756 13.75 8C13.75 4.82436 11.1756 2.25 8 2.25C4.82436 2.25 2.25 4.82436 2.25 8C2.25 11.1756 4.82436 13.75 8 13.75Z" fill="#212529"/>
</svg>
