<svg width="24" height="24" viewBox="0 0 24 24" fill="none" xmlns="http://www.w3.org/2000/svg">
<rect opacity="0.01" width="24" height="24" fill="#212529"/>
<path d="M5 3.59961H9C9.7732 3.59961 10.4004 4.2268 10.4004 5V9C10.4004 9.7732 9.7732 10.4004 9 10.4004H5C4.2268 10.4004 3.59961 9.7732 3.59961 9V5C3.59961 4.2268 4.2268 3.59961 5 3.59961Z" stroke="#212529" stroke-width="1.2"/>
<path d="M15 3.59961H19C19.7732 3.59961 20.4004 4.2268 20.4004 5V9C20.4004 9.7732 19.7732 10.4004 19 10.4004H15C14.2268 10.4004 13.5996 9.7732 13.5996 9V5C13.5996 4.2268 14.2268 3.59961 15 3.59961Z" stroke="#212529" stroke-width="1.2"/>
<path d="M5 13.5996H9C9.7732 13.5996 10.4004 14.2268 10.4004 15V19C10.4004 19.7732 9.7732 20.4004 9 20.4004H5C4.2268 20.4004 3.59961 19.7732 3.59961 19V15C3.59961 14.2268 4.2268 13.5996 5 13.5996Z" stroke="#212529" stroke-width="1.2"/>
<path d="M15 13.5996H19C19.7732 13.5996 20.4004 14.2268 20.4004 15V19C20.4004 19.7732 19.7732 20.4004 19 20.4004H15C14.2268 20.4004 13.5996 19.7732 13.5996 19V15C13.5996 14.2268 14.2268 13.5996 15 13.5996Z" stroke="#212529" stroke-width="1.2"/>
</svg>
