<svg width="24" height="24" viewBox="0 0 24 24" fill="none" xmlns="http://www.w3.org/2000/svg">
<path fill-rule="evenodd" clip-rule="evenodd" d="M16.3399 10.0517H17.4248C18.0003 10.0517 18.5522 10.2803 18.9591 10.6872C19.366 11.0941 19.5946 11.646 19.5946 12.2215V18.7309C19.5946 19.3064 19.366 19.8583 18.9591 20.2652C18.5522 20.6722 18.0003 20.9008 17.4248 20.9008H6.5757C6.00023 20.9008 5.44833 20.6722 5.04141 20.2652C4.63449 19.8583 4.40588 19.3064 4.40588 18.7309V12.2215C4.40588 11.646 4.63449 11.0941 5.04141 10.6872C5.44833 10.2803 6.00023 10.0517 6.5757 10.0517H7.66064V7.33954C7.66064 6.18862 8.11785 5.08484 8.93169 4.27102C9.74553 3.4572 10.8493 3 12.0003 3C13.1512 3 14.255 3.4572 15.0689 4.27102C15.8827 5.08484 16.3399 6.18862 16.3399 7.33954V10.0517ZM9.16064 10.0517V7.33954C9.16064 6.58644 9.45982 5.86418 9.99235 5.33166C10.5249 4.79914 11.2472 4.49997 12.0003 4.49997C12.7534 4.49997 13.4757 4.79914 14.0082 5.33166C14.5407 5.86418 14.8399 6.58644 14.8399 7.33954V10.0517H9.16064ZM10.6192 16.2065C10.253 15.8403 10.0472 15.3436 10.0472 14.8257C10.0472 14.3078 10.253 13.8111 10.6192 13.4449C10.9854 13.0787 11.4821 12.873 12 12.873C12.5179 12.873 13.0146 13.0787 13.3808 13.4449C13.747 13.8111 13.9528 14.3078 13.9528 14.8257C13.9528 15.3436 13.747 15.8403 13.3808 16.2065C13.135 16.4524 12.8304 16.6259 12.5 16.7134V18.1882C12.5 18.4643 12.2761 18.6882 12 18.6882C11.7239 18.6882 11.5 18.4643 11.5 18.1882V16.7134C11.1696 16.6259 10.865 16.4524 10.6192 16.2065Z" fill="#212529"/>
</svg>
