<svg width="226" height="40" viewBox="0 0 226 40" fill="none" xmlns="http://www.w3.org/2000/svg">
<rect x="127.956" y="1.66656" width="93.0588" height="36.6667" rx="5.87786" fill="#23C5BE"/>
<path fill-rule="evenodd" clip-rule="evenodd" d="M136.265 14.9999C136.265 12.2385 138.497 9.99988 141.25 9.99988H151.221C153.974 9.99988 156.206 12.2385 156.206 14.9999V24.9999C156.206 27.7613 153.974 29.9999 151.221 29.9999H141.25C138.497 29.9999 136.265 27.7613 136.265 24.9999V14.9999ZM144.075 24.3094C144.075 24.9208 144.569 25.4165 145.179 25.4165H147.292C147.902 25.4165 148.396 24.9208 148.396 24.3094V22.1665H150.532C151.142 22.1665 151.636 21.6708 151.636 21.0594V18.9404C151.636 18.3289 151.142 17.8332 150.532 17.8332H148.396V15.6904C148.396 15.0789 147.902 14.5832 147.292 14.5832H145.179C144.569 14.5832 144.075 15.0789 144.075 15.6904V17.8332H141.938C141.329 17.8332 140.835 18.3289 140.835 18.9404V21.0594C140.835 21.6708 141.329 22.1665 141.938 22.1665H144.075V24.3094Z" fill="white"/>
<path d="M177.219 15.5383H174.952V17.3268H177.219V19.3653H174.952V21.5768H172.492V11.2499H174.952V13.5576H177.219V15.5383Z" fill="white"/>
<path d="M174.952 28.7499H172.492V24.2499H163.171V22.2691H174.952V28.7499Z" fill="white"/>
<path fill-rule="evenodd" clip-rule="evenodd" d="M165.996 12.2114C166.886 12.205 167.693 12.3845 168.417 12.7499C169.148 13.1153 169.721 13.6249 170.137 14.2787C170.554 14.9262 170.762 15.6537 170.762 16.4614C170.762 17.2883 170.554 18.0287 170.137 18.6826C169.721 19.33 169.151 19.8364 168.427 20.2018C167.703 20.5672 166.893 20.7499 165.996 20.7499C165.093 20.7499 164.276 20.5672 163.545 20.2018C162.815 19.8364 162.239 19.33 161.816 18.6826C161.399 18.0287 161.191 17.2883 161.191 16.4614C161.191 15.6537 161.399 14.9262 161.816 14.2787C162.239 13.6249 162.815 13.1153 163.545 12.7499C164.282 12.3845 165.099 12.205 165.996 12.2114ZM165.996 14.3076C165.535 14.3076 165.121 14.3941 164.756 14.5672C164.391 14.7339 164.106 14.9806 163.901 15.3076C163.702 15.6345 163.606 16.0191 163.613 16.4614C163.606 16.9165 163.702 17.3108 163.901 17.6441C164.106 17.9774 164.391 18.2339 164.756 18.4133C165.121 18.5864 165.535 18.673 165.996 18.673C166.444 18.673 166.848 18.5864 167.207 18.4133C167.565 18.2339 167.847 17.9774 168.052 17.6441C168.264 17.3108 168.373 16.9165 168.379 16.4614C168.373 16.0191 168.264 15.6345 168.052 15.3076C167.847 14.9806 167.565 14.7339 167.207 14.5672C166.848 14.3941 166.444 14.3076 165.996 14.3076Z" fill="white"/>
<path fill-rule="evenodd" clip-rule="evenodd" d="M195.093 19.5384V21.4999H211.044V19.5384H207.373V17.4614C208.033 17.1794 208.539 16.8204 208.892 16.3845C209.244 15.9422 209.423 15.4422 209.43 14.8845C209.423 14.1858 209.157 13.5832 208.632 13.0768C208.113 12.564 207.377 12.173 206.422 11.9037C205.467 11.6345 204.35 11.4999 203.068 11.4999C201.774 11.4999 200.647 11.6345 199.686 11.9037C198.725 12.173 197.985 12.564 197.466 13.0768C196.947 13.5832 196.688 14.1858 196.688 14.8845C196.688 15.4422 196.858 15.9358 197.197 16.3653C197.543 16.7948 198.039 17.1537 198.687 17.4422V19.5384H195.093ZM200.214 13.7691C200.874 13.5127 201.826 13.3845 203.068 13.3845C204.298 13.3845 205.243 13.5127 205.903 13.7691C206.563 14.0255 206.893 14.3973 206.893 14.8845C206.893 15.3589 206.563 15.7178 205.903 15.9614C205.25 16.205 204.305 16.3268 203.068 16.3268C201.819 16.3268 200.868 16.205 200.214 15.9614C199.561 15.7178 199.237 15.3589 199.244 14.8845C199.237 14.3973 199.561 14.0255 200.214 13.7691ZM204.933 18.0768V19.5384H201.166V18.0672C201.704 18.1377 202.338 18.173 203.068 18.173C203.76 18.173 204.382 18.1409 204.933 18.0768Z" fill="white"/>
<path fill-rule="evenodd" clip-rule="evenodd" d="M206.307 22.7884C205.397 22.5448 204.311 22.423 203.049 22.423C201.768 22.423 200.669 22.5448 199.753 22.7884C198.837 23.032 198.136 23.3877 197.649 23.8557C197.162 24.3236 196.918 24.8909 196.918 25.5576C196.918 26.2371 197.162 26.814 197.649 27.2884C198.136 27.7627 198.837 28.1217 199.753 28.3653C200.669 28.6089 201.768 28.7307 203.049 28.7307C204.311 28.7307 205.397 28.6089 206.307 28.3653C207.216 28.1217 207.915 27.7627 208.401 27.2884C208.888 26.814 209.135 26.2371 209.141 25.5576C209.135 24.8909 208.888 24.3236 208.401 23.8557C207.915 23.3877 207.216 23.032 206.307 22.7884ZM199.417 25.5576C199.398 24.6986 200.608 24.2691 203.049 24.2691C205.451 24.2691 206.662 24.6986 206.681 25.5576C206.662 26.455 205.451 26.9037 203.049 26.9037C200.608 26.9037 199.398 26.455 199.417 25.5576Z" fill="white"/>
<path d="M192.133 15.7595C192.172 15.0672 192.191 14.2755 192.191 13.3845V12.0191H180.045V13.9614H189.75C189.744 14.6666 189.715 15.3396 189.663 15.9807C189.612 16.6153 189.513 17.3012 189.366 18.0384H178.084V19.9999H184.83V22.5191H179.699V24.4422H189.75V28.7499H192.21V22.5191H187.29V19.9999H194.093V18.0384H191.835C191.995 17.205 192.095 16.4454 192.133 15.7595Z" fill="white"/>
<path d="M35.6611 36.6652C33.0558 36.6652 30.52 35.3033 29.1196 32.8633L18.741 14.7696C16.6524 11.1271 17.8842 6.46852 21.491 4.35813C25.1004 2.25044 29.7194 3.49344 31.808 7.13326L42.1892 25.227C44.2778 28.8668 43.0461 33.528 39.4393 35.6384C38.2477 36.3329 36.9464 36.6652 35.6638 36.6652H35.6611Z" fill="#0AB9B2"/>
<path d="M12.0623 36.6652C15.9709 36.6652 19.1394 33.4677 19.1394 29.5234C19.1394 25.5791 15.9709 22.3816 12.0623 22.3816C8.15379 22.3816 4.98529 25.5791 4.98529 29.5234C4.98529 33.4677 8.15379 36.6652 12.0623 36.6652Z" fill="#0AB9B2"/>
<path d="M109.101 6.52936C109.101 4.71909 110.489 3.33476 112.223 3.33476C113.958 3.33476 115.345 4.71909 115.345 6.52936V10.4694H117.219C118.572 10.4694 119.647 11.5697 119.647 12.9541C119.647 14.3384 118.572 15.4388 117.219 15.4388H115.345V20.1242C115.345 21.9699 113.958 23.3188 112.223 23.3188C110.489 23.3188 109.101 21.9699 109.101 20.1242V6.52936Z" fill="#0AB9B2"/>
<path d="M88.3909 9.12054C87.0727 9.12054 85.9973 8.02018 85.9973 6.67134C85.9973 5.32251 87.0727 4.22215 88.3909 4.22215H104.106C105.424 4.22215 106.499 5.32251 106.499 6.67134C106.499 8.02018 105.424 9.12054 104.106 9.12054H88.3909Z" fill="#0AB9B2"/>
<path d="M88.044 21.6505C86.7258 21.6505 85.6504 20.5501 85.6504 19.2013C85.6504 17.8525 86.7258 16.7521 88.044 16.7521H88.9807L88.495 12.4571C88.2869 10.6823 89.7439 9.83045 91.4784 9.83045C93.2129 9.83045 94.323 10.6823 94.4618 12.4571L94.7393 16.7521H97.7227L98.0349 12.4571C98.1737 10.6823 99.2837 9.83045 101.018 9.83045C102.753 9.83045 104.21 10.6823 104.002 12.4571L103.516 16.7521H104.453C105.771 16.7521 106.846 17.8525 106.846 19.2013C106.846 20.5501 105.771 21.6505 104.453 21.6505H88.044Z" fill="#0AB9B2"/>
<path fill-rule="evenodd" clip-rule="evenodd" d="M87.6624 34.2159C87.6624 35.5648 88.7378 36.6651 90.0561 36.6651H112.952C114.27 36.6651 115.345 35.5648 115.345 34.2159V26.6554C115.345 25.3065 114.27 24.2062 112.952 24.2062H90.0561C88.7378 24.2062 87.6624 25.3065 87.6624 26.6554V34.2159ZM109.171 31.8377H93.8373V29.0336H109.171V31.8377Z" fill="#0AB9B2"/>
<path d="M52.5554 6.53216C52.5554 7.95199 53.6308 9.01685 54.9837 9.01685H75.6246C75.6246 10.7916 74.9655 13.4183 73.9594 15.6545H53.943C52.6248 15.6545 51.5147 16.7904 51.5147 18.1747C51.5147 19.4881 52.6248 20.6239 53.943 20.6239H64.3155V22.0792C64.3155 23.925 65.7031 24.7414 67.4376 24.7414C69.1721 24.7414 70.5598 23.925 70.5598 22.0792V20.6239H80.9669C82.3545 20.6239 83.4299 19.4881 83.4299 18.1747C83.4299 16.7904 82.3545 15.6545 80.9669 15.6545H80.2731C81.2444 13.0634 81.8689 10.1527 81.8689 6.49667C81.8689 5.14783 80.7935 4.04747 79.4752 4.04747H54.9837C53.6308 4.04747 52.5554 5.11234 52.5554 6.53216Z" fill="#0AB9B2"/>
<path d="M54.3246 31.6275C59.9792 31.6275 64.3502 30.0657 64.3502 27.9715V27.8295C64.3502 26.4097 65.7378 25.4513 67.4723 25.4513C69.2068 25.4513 70.5945 26.4097 70.5945 27.8295V27.9715C70.5945 30.0657 74.9655 31.6275 80.62 31.6275C82.0423 31.6275 83.0483 32.7634 83.0483 34.1477C83.0483 35.5321 82.0423 36.6679 80.62 36.6679C74.2717 36.6679 69.7619 35.3191 67.4723 32.7279C65.1481 35.3191 60.6383 36.6679 54.3246 36.6679C52.9023 36.6679 51.8963 35.5321 51.8963 34.1477C51.8963 32.7634 52.9023 31.6275 54.3246 31.6275Z" fill="#0AB9B2"/>
</svg>
