<svg width="24" height="24" viewBox="0 0 24 24" fill="none" xmlns="http://www.w3.org/2000/svg">
<rect opacity="0.01" x="0.6" y="0.6" width="22.8" height="22.8" stroke="#212529" stroke-width="1.2"/>
<path d="M9 4.79956C10.8778 4.79956 12.4004 6.32218 12.4004 8.19995C12.4004 10.0777 10.8778 11.6003 9 11.6003C7.12223 11.6003 5.59961 10.0777 5.59961 8.19995C5.59961 6.32218 7.12223 4.79956 9 4.79956Z" stroke="#212529" stroke-width="1.2"/>
<path d="M17 7.59961C18.3255 7.59961 19.4004 8.67452 19.4004 10C19.4004 11.3255 18.3255 12.4004 17 12.4004C15.6745 12.4004 14.5996 11.3255 14.5996 10C14.5996 8.67452 15.6745 7.59961 17 7.59961Z" stroke="#212529" stroke-width="1.2"/>
<path d="M13.9399 15.05C15.4479 13.8831 17.4882 13.6754 19.2003 14.5145C20.9124 15.3536 21.9983 17.0933 21.9999 19C21.9999 19.5523 21.5522 20 20.9999 20H15.5" stroke="#212529" stroke-width="1.2" stroke-linecap="round" stroke-linejoin="round"/>
<path d="M9 13.5996C12.5346 13.5996 15.4004 16.4654 15.4004 20C15.4004 20.2209 15.2209 20.4004 15 20.4004H3C2.77909 20.4004 2.59961 20.2209 2.59961 20C2.59961 16.4654 5.46538 13.5996 9 13.5996Z" stroke="#212529" stroke-width="1.2"/>
</svg>
