<svg width="24" height="24" viewBox="0 0 24 24" fill="none" xmlns="http://www.w3.org/2000/svg">
<path d="M7.9099 17.135C10.765 17.135 13.0796 14.8204 13.0796 11.9653C13.0796 9.11019 10.765 6.79565 7.9099 6.79565C5.05477 6.79565 2.74023 9.11019 2.74023 11.9653C2.74023 14.8204 5.05477 17.135 7.9099 17.135Z" stroke="#212529" stroke-width="1.2" stroke-miterlimit="10" stroke-linejoin="round"/>
<path d="M7.91173 11.6865C8.67226 11.6865 9.2888 11.07 9.2888 10.3094C9.2888 9.54891 8.67226 8.93237 7.91173 8.93237C7.1512 8.93237 6.53467 9.54891 6.53467 10.3094C6.53467 11.07 7.1512 11.6865 7.91173 11.6865Z" fill="#212529"/>
<path d="M9.97741 14.6816C10.1675 14.6816 10.3217 14.5371 10.3217 14.3589C10.3217 13.1111 9.24275 12.0996 7.91182 12.0996C6.58089 12.0996 5.50195 13.1111 5.50195 14.3589C5.50195 14.5371 5.65609 14.6816 5.84622 14.6816H7.91182H9.97741Z" fill="#212529"/>
<path d="M16.8989 6.87304C17.9684 6.87304 18.8354 6.00603 18.8354 4.93652C18.8354 3.86701 17.9684 3 16.8989 3C15.8294 3 14.9624 3.86701 14.9624 4.93652C14.9624 6.00603 15.8294 6.87304 16.8989 6.87304Z" stroke="#212529" stroke-width="1.2" stroke-miterlimit="10" stroke-linejoin="round"/>
<path d="M19.3203 13.9018C20.3898 13.9018 21.2568 13.0348 21.2568 11.9653C21.2568 10.8958 20.3898 10.0288 19.3203 10.0288C18.2508 10.0288 17.3838 10.8958 17.3838 11.9653C17.3838 13.0348 18.2508 13.9018 19.3203 13.9018Z" stroke="#212529" stroke-width="1.2" stroke-miterlimit="10" stroke-linejoin="round"/>
<path d="M16.8989 20.9338C17.9684 20.9338 18.8354 20.0668 18.8354 18.9973C18.8354 17.9278 17.9684 17.0608 16.8989 17.0608C15.8294 17.0608 14.9624 17.9278 14.9624 18.9973C14.9624 20.0668 15.8294 20.9338 16.8989 20.9338Z" stroke="#212529" stroke-width="1.2" stroke-miterlimit="10" stroke-linejoin="round"/>
<path d="M11.7725 8.48288L15.3255 6.08496" stroke="#212529" stroke-width="1.2" stroke-miterlimit="10" stroke-linejoin="round"/>
<path d="M11.7725 15.4509L15.3255 17.8488" stroke="#212529" stroke-width="1.2" stroke-miterlimit="10" stroke-linejoin="round"/>
<path d="M13.0796 11.9653H17.3871" stroke="#212529" stroke-width="1.2" stroke-miterlimit="10" stroke-linejoin="round"/>
</svg>
